<svg
    xmlns="http://www.w3.org/2000/svg"
    viewBox="0 0 512 512"
    id="vector">
    <g
        id="group"
        transform="translate(78.14737 78.14737) scale(0.69473684 0.69473684)">
        <path
            id="path"
            d="M 236 78.5 C 212.1 82.9 192.2 93.5 174.4 111.4 C 160.6 125.3 153.3 136.7 147.2 154.2 C 142.7 166.9 141 177.3 141 192.4 C 141 212.1 144.4 226.8 152.7 243.5 C 158.4 254.8 159.3 256.2 187.9 292.4 C 200.9 308.8 221.3 334.7 233.3 349.9 C 245.2 365.1 255.5 377.5 256 377.5 C 256.9 377.5 346 265.3 352 256.6 C 356.4 250.1 363.5 235.3 365.8 227.8 C 371.1 210.6 372.6 187.6 369.4 171 C 365 147.7 354.9 128.8 337.6 111.4 C 323.2 97 309.3 88.3 291.5 82.5 C 274.7 77.1 252.7 75.5 236 78.5 Z M 281.5 101.4 C 314 111 338.5 135.9 347.6 168.6 C 349.7 176.4 350.6 200.1 349.1 208.3 C 347 219.4 342.7 231 337.5 239.6 C 332.9 247.4 257.4 344 256 344 C 255 344 182.1 251.3 176.4 242.9 C 170.3 233.9 165.8 222.8 163.5 211.1 C 161.4 200.7 161.9 177.6 164.4 168.6 C 173.2 137.4 195.9 113 225.6 103.1 C 238.5 98.8 243.7 98.1 259 98.5 C 269.9 98.7 274.2 99.3 281.5 101.4 Z"
            fill="#000000"
            stroke="#00000000"/>
        <path
            id="path_1"
            d="M 214 203 L 214 245 L 224.5 245 L 235 245 L 235 203 L 235 161 L 224.5 161 L 214 161 L 214 203 Z"
            fill="#000000"
            stroke="#00000000"/>
        <path
            id="path_2"
            d="M 256 203 L 256 245 L 266.5 245 L 277 245 L 277 229 L 277 213 L 287.8 213 C 299.9 213 304.9 211.4 310.8 205.7 C 316.5 200.3 318.5 195.5 318.5 187 C 318.5 178.5 316.5 173.7 310.8 168.3 C 303.9 161.7 300.9 161 277.3 161 L 256 161 L 256 203 Z M 296.4 183.6 C 298.3 185.4 298.4 187.4 297 190.1 C 296.1 191.8 294.8 192 286.5 192 L 277 192 L 277 187 L 277 182 L 285.9 182 C 292.7 182 295.2 182.4 296.4 183.6 Z"
            fill="#000000"
            stroke="#00000000"/>
        <path
            id="path_3"
            d="M 189.5 359.9 C 167 366.8 153.2 377.6 151.4 389.5 C 148.3 410.7 173.2 426.3 221 433.1 C 233.8 435 278.2 435 291 433.1 C 338.8 426.3 363.7 410.7 360.6 389.5 C 358.7 377.1 343.3 365.6 319.7 359 C 315.4 357.8 311.3 357.1 310.6 357.3 C 309.3 357.8 305.4 375.7 306.4 376.7 C 306.7 377.1 310.7 378.4 315.3 379.7 C 325.3 382.6 334.7 387 337.9 390.4 C 340.3 393 340.3 393 338.4 395.1 C 332.2 402 315.8 407.9 292 411.8 C 277.2 414.2 234.8 414.2 220 411.8 C 196.2 407.9 179.8 402 173.6 395.1 C 171.7 393 171.7 393 174.1 390.4 C 177.3 387 186.7 382.6 197 379.6 C 202 378.2 205.6 376.6 205.8 375.8 C 205.9 375 205.2 370.6 204.2 365.9 C 202.7 359.1 202 357.5 200.4 357.3 C 199.4 357.2 194.5 358.3 189.5 359.9 Z"
            fill="#000000"
            stroke="#00000000"/>
    </g>
</svg>
